<?xml version="1.0" encoding="UTF-8" standalone="no"?>
<svg
   xmlns:dc="http://purl.org/dc/elements/1.1/"
   xmlns:cc="http://creativecommons.org/ns#"
   xmlns:rdf="http://www.w3.org/1999/02/22-rdf-syntax-ns#"
   xmlns:svg="http://www.w3.org/2000/svg"
   xmlns="http://www.w3.org/2000/svg"
   xmlns:xlink="http://www.w3.org/1999/xlink"
   xmlns:sodipodi="http://sodipodi.sourceforge.net/DTD/sodipodi-0.dtd"
   xmlns:inkscape="http://www.inkscape.org/namespaces/inkscape"
   width="21.797636mm"
   height="21.452484mm"
   viewBox="0 0 21.797636 21.452484"
   version="1.1"
   id="svg1400"
   inkscape:version="1.0 (4035a4fb49, 2020-05-01)"
   sodipodi:docname="logo.svg">
  <defs
     id="defs1394">
    <linearGradient
       inkscape:collect="always"
       id="linearGradient999">
      <stop
         style="stop-color:#fef9c3;stop-opacity:1"
         offset="0"
         id="stop993" />
      <stop
         id="stop995"
         offset="0.51301122"
         style="stop-color:#fde047;stop-opacity:1" />
      <stop
         style="stop-color:#eab308;stop-opacity:1"
         offset="1"
         id="stop997" />
    </linearGradient>
    <linearGradient
       id="linearGradient900-5"
       inkscape:collect="always">
      <stop
         id="stop896"
         offset="0"
         style="stop-color:#ffbe00;stop-opacity:1;" />
      <stop
         style="stop-color:#ffecb6;stop-opacity:1"
         offset="0.51301122"
         id="stop916" />
      <stop
         id="stop898"
         offset="1"
         style="stop-color:#ffbd00;stop-opacity:1" />
    </linearGradient>
    <linearGradient
       y2="110.33951"
       x2="222.07742"
       y1="-123.36665"
       x1="76.850601"
       gradientUnits="userSpaceOnUse"
       id="linearGradient909"
       xlink:href="#linearGradient900-5"
       inkscape:collect="always" />
    <linearGradient
       gradientTransform="matrix(1.0520719,0,0,1.0520719,-8.2603598,-10.321457)"
       y2="110.33951"
       x2="222.07742"
       y1="-123.36665"
       x1="76.850601"
       gradientUnits="userSpaceOnUse"
       id="linearGradient918"
       xlink:href="#linearGradient900-5"
       inkscape:collect="always" />
    <linearGradient
       gradientTransform="matrix(0.30035549,0,0,0.28959008,4.0572606,46.393394)"
       gradientUnits="userSpaceOnUse"
       y2="-49.947117"
       x2="-398.33304"
       y1="-207.49741"
       x1="-541.60864"
       id="linearGradient1009"
       xlink:href="#linearGradient999"
       inkscape:collect="always" />
  </defs>
  <sodipodi:namedview
     id="base"
     pagecolor="#ffffff"
     bordercolor="#666666"
     borderopacity="1.0"
     inkscape:pageopacity="0.0"
     inkscape:pageshadow="2"
     inkscape:zoom="8"
     inkscape:cx="64.608523"
     inkscape:cy="47.282689"
     inkscape:document-units="mm"
     inkscape:current-layer="g2133"
     inkscape:document-rotation="0"
     showgrid="false"
     inkscape:window-width="1827"
     inkscape:window-height="1051"
     inkscape:window-x="84"
     inkscape:window-y="-9"
     inkscape:window-maximized="1" />
  <metadata
     id="metadata1397">
    <rdf:RDF>
      <cc:Work
         rdf:about="">
        <dc:format>image/svg+xml</dc:format>
        <dc:type
           rdf:resource="http://purl.org/dc/dcmitype/StillImage" />
        <dc:title />
      </cc:Work>
    </rdf:RDF>
  </metadata>
  <g
     inkscape:label="Layer 1"
     inkscape:groupmode="layer"
     id="layer1"
     transform="translate(37.473216,165.82991)">
    <g
       id="g2133"
       transform="matrix(0.07662196,0,0,0.07662196,6.7886342,-147.92967)">
      <path
         transform="matrix(3.4531006,0,0,3.4531006,7.351955,-160.20486)"
         d="m -151.94141,-21.259766 a 17.635058,17.635058 0 0 0 -17.47656,17.634766 17.635058,17.635058 0 0 0 3.01563,9.8632812 40.391812,40.391812 0 0 0 -2.21485,13.1914068 40.391812,40.391812 0 0 0 40.39063,40.390624 40.391812,40.391812 0 0 0 40.392576,-40.390624 40.391812,40.391812 0 0 0 -2.214844,-13.1933599 17.635057,17.635057 0 0 0 3.015625,-9.8613281 17.635057,17.635057 0 0 0 -17.634767,-17.634766 17.635057,17.635057 0 0 0 -9.54687,2.806641 40.391812,40.391812 0 0 0 -14.01172,-2.509766 40.391812,40.391812 0 0 0 -14.01367,2.509766 17.635058,17.635058 0 0 0 -9.54297,-2.806641 17.635058,17.635058 0 0 0 -0.15821,0 z"
         style="fill:url(#linearGradient1009);fill-opacity:1;stroke:none;stroke-width:1.59757;stroke-linecap:round;stroke-miterlimit:4;stroke-dasharray:none;stroke-opacity:1;stop-color:#000000"
         id="path1001" />
      <g
         id="g1038" />
      <path
         sodipodi:nodetypes="cccccccccccccccsscscsccccccscscsccccccccccccccccccscsscsc"
         d="m -514.84343,-221.96002 c -27.43778,0.0796 -49.63837,22.34467 -49.63831,49.78256 -8.6e-4,11.28807 3.83458,22.24131 10.87716,31.06301 -6.29334,15.45285 -9.53011,31.97954 -9.53104,48.664765 5e-5,71.267675 57.77391,129.041527 129.04158,129.041582 71.26767,-5.5e-5 129.04153,-57.773907 129.04158,-129.041582 -0.001,-17.133965 -3.41514,-34.096085 -10.04182,-49.896705 6.41523,-8.59978 9.8805,-19.04198 9.87959,-29.77097 -5e-5,-27.49413 -22.28843,-49.78251 -49.78256,-49.78256 -10.85034,2.5e-4 -21.40352,3.54542 -30.05341,10.09594 -15.56005,-6.39508 -32.22042,-9.68592 -49.04338,-9.68729 -17.1623,6.1e-4 -34.15207,3.42472 -49.97483,10.07189 -8.74951,-6.83001 -19.53064,-10.54006 -30.63032,-10.54064 -0.0481,-7e-5 -0.0962,-7e-5 -0.14424,0 z m 34.09781,26.26746 c 15.73675,-0.65795 28.21208,24.06196 44.96893,24.06196 17.87401,0 30.38667,-25.46949 48.15998,-23.5752 43.31724,4.61678 47.82347,61.96977 47.82347,61.96978 0,0 18.59417,50.603494 -2.00325,68.739573 -18.72535,16.487714 -34.58247,15.991367 -37.84562,38.986379 -11.30123,11.001157 -21.60975,15.135313 -29.68684,14.585013 -8.94173,-0.609226 -16.21467,-6.557675 -20.90098,-17.87821 l -0.8774,-2.121352 25.27589,-31.291367 -57.93139,0.673065 26.54988,30.768545 -0.81128,1.98313 c -4.5754,11.160559 -11.87794,18.024585 -20.19186,19.1522134 -8.14318,1.104467 -18.57019,-3.1236724 -30.19163,-17.1991344 -1.62343,-19.035141 -13.99838,-21.715913 -34.90516,-35.47945 -20.50623,-13.499849 -4.40887,-70.918415 -4.40887,-70.918405 0,0 0.0638,-50.46548 43.78509,-61.96978 1.08034,-0.28426 2.14192,-0.4429 3.19104,-0.48676 z m 86.95116,47.60111 c -2.45968,0.0192 -4.89599,0.47919 -7.19334,1.35814 -9.70986,3.72273 -15.11703,14.10388 -12.60188,24.19417 2.51411,10.08762 12.15662,16.71619 22.47546,15.45036 10.31778,-1.2678 18.07019,-10.03083 18.0705,-20.42621 h -20.57645 l 18.17267,-9.65124 c -3.60024,-6.77773 -10.67263,-10.98919 -18.34696,-10.92522 z m -85.65313,2.45788 c -2.45968,0.0192 -4.89599,0.47919 -7.19334,1.35814 -9.70985,3.72273 -15.11702,14.10387 -12.60188,24.19416 2.5141,10.08762 12.15661,16.7162 22.47545,15.45037 10.31779,-1.2678 18.0702,-10.03083 18.07051,-20.42622 h -20.57646 l 18.17268,-9.65123 c -3.60024,-6.77773 -10.67263,-10.98919 -18.34696,-10.92522 z m 45.38962,127.551214 c 5.80944,9.0647474 14.19608,14.898247 24.15211,15.5765734 8.74701,0.5959536 18.16317,-2.6810991 27.74577,-9.7834334 -2.41241,9.409602 -6.3535,17.5304616 -14.21242,22.523536 -21.7941,13.846612 -55.70228,13.900225 -77.46221,0 -8.18402,-5.227946 -11.3601,-13.5564042 -12.98048,-23.130495 10.1468,9.1858999 20.35168,12.88298093 29.73492,11.6103214 9.63667,-1.3070302 17.50611,-7.721376 23.02231,-16.7965024 z"
         style="opacity:0.998792;fill:#000000;fill-opacity:1;stroke:none;stroke-width:5.35453;stroke-linecap:round;stroke-miterlimit:4;stroke-dasharray:none;stroke-opacity:1;stop-color:#000000"
         id="path926-3-9-6-2-1-4-2-0-2" />
    </g>
  </g>
</svg>
