<svg xmlns="http://www.w3.org/2000/svg" version="1.1" xmlns:xlink="http://www.w3.org/1999/xlink" xmlns:svgjs="http://svgjs.com/svgjs" width="512" height="512" x="0" y="0" viewBox="0 0 520 520" style="enable-background:new 0 0 512 512" xml:space="preserve" class=""><g><g xmlns="http://www.w3.org/2000/svg" id="_87-Faucet" data-name="87-Faucet"><path d="m430.157 154.9a125.651 125.651 0 0 0 -251.271 2.748v164.719a28.414 28.414 0 0 0 -28.122 28.378v14.633h-50.321a28.913 28.913 0 1 0 0 57.825h50.321v54.797a10 10 0 0 0 10 10h101.275a10 10 0 0 0 10-10v-127.255a28.417 28.417 0 0 0 -28.384-28.385h-1.055v-158.66a63.77 63.77 0 0 1 126.97-8.509 10 10 0 0 0 -5.325 8.837v32.172a10 10 0 0 0 10 10h51.826a10 10 0 0 0 10-10v-32.175a10 10 0 0 0 -5.914-9.125zm-338.627 239.39a8.923 8.923 0 0 1 8.913-8.912h99.63a8.913 8.913 0 1 1 0 17.825h-99.63a8.923 8.923 0 0 1 -8.913-8.913zm152.125-51.93a8.394 8.394 0 0 1 8.384 8.385v117.255h-81.275v-44.8h29.309a28.913 28.913 0 1 0 0-57.825h-29.309v-14.63a8.394 8.394 0 0 1 8.384-8.385zm62.724-262.44a83.872 83.872 0 0 0 -83.779 83.78v158.66h-23.714v-164.708a105.649 105.649 0 0 1 211.236-3.641 9.926 9.926 0 0 0 -1.214-.081h-19.317a83.9 83.9 0 0 0 -83.212-74.01zm109.694 106.28h-31.826v-12.175h31.826z" fill="#000000" data-original="#000000"></path><circle cx="379.2" cy="231.597" r="10" fill="#000000" data-original="#000000"></circle><circle cx="374.87" cy="268.882" r="10" fill="#000000" data-original="#000000"></circle><circle cx="370.53" cy="306.174" r="10" fill="#000000" data-original="#000000"></circle><circle cx="366.19" cy="343.461" r="10" fill="#000000" data-original="#000000"></circle><circle cx="361.85" cy="380.747" r="10" fill="#000000" data-original="#000000"></circle><circle cx="400.125" cy="380.747" r="10" fill="#000000" data-original="#000000"></circle><circle cx="438.47" cy="380.747" r="10" fill="#000000" data-original="#000000"></circle><circle cx="400.125" cy="343.461" r="10" fill="#000000" data-original="#000000"></circle><circle cx="434.13" cy="343.461" r="10" fill="#000000" data-original="#000000"></circle><circle cx="400.125" cy="306.174" r="10" fill="#000000" data-original="#000000"></circle><circle cx="429.79" cy="306.174" r="10" fill="#000000" data-original="#000000"></circle><circle cx="400.125" cy="268.882" r="10" fill="#000000" data-original="#000000"></circle><circle cx="425.45" cy="268.882" r="10" fill="#000000" data-original="#000000"></circle><circle cx="400.13" cy="231.597" r="10" fill="#000000" data-original="#000000"></circle><circle cx="421.12" cy="231.597" r="10" fill="#000000" data-original="#000000"></circle></g></g></svg>