<svg xmlns="http://www.w3.org/2000/svg" version="1.1" xmlns:xlink="http://www.w3.org/1999/xlink" xmlns:svgjs="http://svgjs.com/svgjs" width="512" height="512" x="0" y="0" viewBox="0 0 480 480" style="enable-background:new 0 0 512 512" xml:space="preserve" class=""><g><path xmlns="http://www.w3.org/2000/svg" d="m472 0h-208c-4.417969 0-8 3.582031-8 8v448c0 4.417969 3.582031 8 8 8h8v16h16v-16h160v16h16v-16h8c4.417969 0 8-3.582031 8-8v-448c0-4.417969-3.582031-8-8-8zm-8 448h-192v-280h192zm0-296h-192v-136h192zm0 0" fill="#000000" data-original="#000000"></path><path xmlns="http://www.w3.org/2000/svg" d="m296 56h16v80h-16zm0 0" fill="#000000" data-original="#000000"></path><path xmlns="http://www.w3.org/2000/svg" d="m296 184h16v112h-16zm0 0" fill="#000000" data-original="#000000"></path><path xmlns="http://www.w3.org/2000/svg" d="m8 464h8v16h16v-16h176v16h16v-16h8c4.417969 0 8-3.582031 8-8v-280c0-4.417969-3.582031-8-8-8h-224c-4.417969 0-8 3.582031-8 8v280c0 4.417969 3.582031 8 8 8zm8-280h208v48h-208zm0 64h208v200h-208zm0 0" fill="#000000" data-original="#000000"></path><path xmlns="http://www.w3.org/2000/svg" d="m120 256c-48.601562 0-88 39.398438-88 88s39.398438 88 88 88 88-39.398438 88-88c-.058594-48.578125-39.421875-87.941406-88-88zm0 160c-31.621094.050781-59.578125-20.535156-68.910156-50.75-9.332032-30.210938 2.140625-62.980469 28.28125-80.773438 26.140625-17.789062 60.832031-16.441406 85.515625 3.324219l-11.367188 11.398438c-23.101562-17.523438-55.75-14.5625-75.324219 6.835937-19.570312 21.394532-19.621093 54.175782-.113281 75.628906 19.507813 21.457032 52.144531 24.515626 75.300781 7.0625l11.503907 11.503907c-12.726563 10.222656-28.5625 15.785156-44.886719 15.769531zm18.34375-42.34375 3.625 3.625c-16.703125 11.097656-39.042969 8.117188-52.246094-6.976562-13.207031-15.09375-13.191406-37.632813.03125-52.710938s35.566406-18.035156 52.253906-6.914062l-3.664062 3.664062c-1.5 1.5-2.34375 3.535156-2.34375 5.65625v48c0 2.121094.84375 4.15625 2.34375 5.65625zm37.855469 15.199219-24.199219-24.167969v-41.375l24.199219-24.199219c21.066406 26.214844 21.066406 63.558594 0 89.773438zm0 0" fill="#000000" data-original="#000000"></path><path xmlns="http://www.w3.org/2000/svg" d="m32 200h16v16h-16zm0 0" fill="#000000" data-original="#000000"></path><path xmlns="http://www.w3.org/2000/svg" d="m64 200h16v16h-16zm0 0" fill="#000000" data-original="#000000"></path><path xmlns="http://www.w3.org/2000/svg" d="m96 200h16v16h-16zm0 0" fill="#000000" data-original="#000000"></path><path xmlns="http://www.w3.org/2000/svg" d="m160 200h48v16h-48zm0 0" fill="#000000" data-original="#000000"></path><path xmlns="http://www.w3.org/2000/svg" d="m8 152h224c4.417969 0 8-3.582031 8-8v-136c0-4.417969-3.582031-8-8-8h-224c-4.417969 0-8 3.582031-8 8v136c0 4.417969 3.582031 8 8 8zm168-136h48v120h-48zm-160 0h144v120h-144zm0 0" fill="#000000" data-original="#000000"></path><path xmlns="http://www.w3.org/2000/svg" d="m192 32h16v16h-16zm0 0" fill="#000000" data-original="#000000"></path><path xmlns="http://www.w3.org/2000/svg" d="m192 64h16v16h-16zm0 0" fill="#000000" data-original="#000000"></path><path xmlns="http://www.w3.org/2000/svg" d="m136 32h-96c-4.417969 0-8 3.582031-8 8v72c0 4.417969 3.582031 8 8 8h96c4.417969 0 8-3.582031 8-8v-72c0-4.417969-3.582031-8-8-8zm-8 72h-80v-56h80zm0 0" fill="#000000" data-original="#000000"></path><path xmlns="http://www.w3.org/2000/svg" d="m200 100c-6.628906 0-12 5.371094-12 12s5.371094 12 12 12 12-5.371094 12-12-5.371094-12-12-12zm0 16c-2.210938 0-4-1.789062-4-4s1.789062-4 4-4 4 1.789062 4 4-1.789062 4-4 4zm0 0" fill="#000000" data-original="#000000"></path></g></svg>