<svg xmlns="http://www.w3.org/2000/svg" version="1.1" xmlns:xlink="http://www.w3.org/1999/xlink" xmlns:svgjs="http://svgjs.com/svgjs" width="512" height="512" x="0" y="0" viewBox="0 0 64 64" style="enable-background:new 0 0 512 512" xml:space="preserve" class=""><g><path xmlns="http://www.w3.org/2000/svg" d="m60.977 42.002h-18.985v-19c0-.553-.447-1-1-1h-18.984v-19c0-.553-.447-1-1-1h-20c-.553 0-1 .447-1 1v20 20 20c0 .553.447 1 1 1h19.984.016 19.969.016 19.984c.553 0 1-.447 1-1v-20c0-.553-.448-1-1-1zm-58.969-18h17.984v18h-17.984zm20 20h17.969v18h-17.969zm17.984-2h-17.984v-18h17.984zm-37.984-38h18v18h-18zm0 40h17.984v18h-17.984zm57.969 18h-17.985v-18h17.984v18z" fill="#000000" data-original="#000000" class=""></path><path xmlns="http://www.w3.org/2000/svg" d="m18.008 5.002c-.553 0-1 .447-1 1v13h-13c-.553 0-1 .447-1 1s.447 1 1 1h14c.553 0 1-.447 1-1v-14c0-.553-.447-1-1-1z" fill="#000000" data-original="#000000" class=""></path><path xmlns="http://www.w3.org/2000/svg" d="m18.008 25.002c-.553 0-1 .447-1 1v13h-13c-.553 0-1 .447-1 1s.447 1 1 1h14c.553 0 1-.447 1-1v-14c0-.553-.447-1-1-1z" fill="#000000" data-original="#000000" class=""></path><path xmlns="http://www.w3.org/2000/svg" d="m18.008 45.002c-.553 0-1 .447-1 1v13h-13c-.553 0-1 .447-1 1s.447 1 1 1h14c.553 0 1-.447 1-1v-14c0-.553-.447-1-1-1z" fill="#000000" data-original="#000000" class=""></path><path xmlns="http://www.w3.org/2000/svg" d="m24.008 41.002h14c.553 0 1-.447 1-1v-14c0-.553-.447-1-1-1s-1 .447-1 1v13h-13c-.553 0-1 .447-1 1s.447 1 1 1z" fill="#000000" data-original="#000000" class=""></path><path xmlns="http://www.w3.org/2000/svg" d="m38.008 45.002c-.553 0-1 .447-1 1v13h-13c-.553 0-1 .447-1 1s.447 1 1 1h14c.553 0 1-.447 1-1v-14c0-.553-.447-1-1-1z" fill="#000000" data-original="#000000" class=""></path><path xmlns="http://www.w3.org/2000/svg" d="m44.008 61.002h14c.553 0 1-.447 1-1v-14c0-.553-.447-1-1-1s-1 .447-1 1v13h-13c-.553 0-1 .447-1 1s.447 1 1 1z" fill="#000000" data-original="#000000" class=""></path><path xmlns="http://www.w3.org/2000/svg" d="m23.988 4.982h15.999c.553 0 1-.447 1-1s-.447-1-1-1h-15.999c-.553 0-1 .447-1 1s.448 1 1 1z" fill="#000000" data-original="#000000" class=""></path><path xmlns="http://www.w3.org/2000/svg" d="m23.988 8.984h15.999c.553 0 1-.447 1-1s-.447-1-1-1h-15.999c-.553 0-1 .447-1 1s.448 1 1 1z" fill="#000000" data-original="#000000" class=""></path><path xmlns="http://www.w3.org/2000/svg" d="m23.988 12.986h15.999c.553 0 1-.447 1-1s-.447-1-1-1h-15.999c-.553 0-1 .447-1 1s.448 1 1 1z" fill="#000000" data-original="#000000" class=""></path><path xmlns="http://www.w3.org/2000/svg" d="m23.988 16.988h15.999c.553 0 1-.447 1-1s-.447-1-1-1h-15.999c-.553 0-1 .447-1 1s.448 1 1 1z" fill="#000000" data-original="#000000" class=""></path><path xmlns="http://www.w3.org/2000/svg" d="m23.988 20.988h15.999c.553 0 1-.447 1-1s-.447-1-1-1h-15.999c-.553 0-1 .447-1 1s.448 1 1 1z" fill="#000000" data-original="#000000" class=""></path><path xmlns="http://www.w3.org/2000/svg" d="m55.234.346c-.741.862-7.242 8.539-7.242 12.658 0 3.538 2.311 6.542 5.501 7.595v3.401h-1c-.553 0-1 .447-1 1s.447 1 1 1h.001v8.497c0 .002-.001.003-.001.005 0 1.93 1.57 3.5 3.5 3.5s3.5-1.57 3.5-3.5c0-.002-.001-.003-.001-.005v-8.497c.553 0 1-.447 1-1s-.447-1-1-1h-1v-3.401c3.189-1.054 5.5-4.058 5.5-7.595 0-4.119-6.501-11.796-7.242-12.658-.379-.442-1.137-.442-1.516 0zm2.259 34.159c-.002.826-.674 1.497-1.5 1.497s-1.498-.671-1.5-1.497c0-.001.001-.002.001-.003v-8.502h2.998v8.502c0 .001.001.002.001.003zm-1.001-10.505h-.999v-3.021c.166.011.331.025.499.025.169 0 .334-.015.5-.025zm-.5-4.996c-3.309 0-6-2.691-6-6 0-2.535 3.818-7.759 6-10.444 2.183 2.685 6 7.907 6 10.444 0 3.309-2.691 6-6 6z" fill="#000000" data-original="#000000" class=""></path></g></svg>