<svg xmlns="http://www.w3.org/2000/svg" version="1.1" xmlns:xlink="http://www.w3.org/1999/xlink" xmlns:svgjs="http://svgjs.com/svgjs" width="512" height="512" x="0" y="0" viewBox="0 0 512 512" style="enable-background:new 0 0 512 512" xml:space="preserve" class=""><g><path xmlns="http://www.w3.org/2000/svg" d="m151.984375 191.902344h-143.984375c-4.425781 0-8-3.574219-8-8v-175.902344c0-4.425781 3.574219-8 8-8h143.984375c4.421875 0 8 3.574219 8 8v175.902344c0 4.425781-3.578125 8-8 8zm-135.984375-16h127.984375v-159.902344h-127.984375zm0 0" fill="#000000" data-original="#000000" class=""></path><path xmlns="http://www.w3.org/2000/svg" d="m439.9375 191.902344h-143.984375c-4.425781 0-8-3.574219-8-8v-175.902344c0-4.425781 3.574219-8 8-8h143.984375c4.421875 0 8 3.574219 8 8v175.902344c0 4.425781-3.578125 8-8 8zm-135.984375-16h127.984375v-159.902344h-127.984375zm0 0" fill="#000000" data-original="#000000" class=""></path><path xmlns="http://www.w3.org/2000/svg" d="m151.984375 512h-143.984375c-4.425781 0-8-3.574219-8-8v-175.96875c0-4.421875 3.574219-8 8-8h143.984375c4.421875 0 8 3.578125 8 8v175.96875c0 4.425781-3.578125 8-8 8zm-135.984375-16h127.984375v-159.96875h-127.984375zm0 0" fill="#000000" data-original="#000000" class=""></path><path xmlns="http://www.w3.org/2000/svg" d="m439.9375 512h-143.984375c-4.425781 0-8-3.574219-8-8v-175.96875c0-4.421875 3.574219-8 8-8h143.984375c4.421875 0 8 3.578125 8 8v175.96875c0 4.425781-3.578125 8-8 8zm-135.984375-16h127.984375v-159.96875h-127.984375zm0 0" fill="#000000" data-original="#000000" class=""></path><path xmlns="http://www.w3.org/2000/svg" d="m295.953125 128h-143.96875c-4.425781 0-8-3.574219-8-8s3.574219-8 8-8h143.96875c4.421875 0 8 3.574219 8 8s-3.578125 8-8 8zm0 0" fill="#000000" data-original="#000000" class=""></path><path xmlns="http://www.w3.org/2000/svg" d="m295.953125 336h-143.96875c-4.425781 0-8-3.574219-8-8s3.574219-8 8-8h143.96875c4.421875 0 8 3.574219 8 8s-3.578125 8-8 8zm0 0" fill="#000000" data-original="#000000" class=""></path><path xmlns="http://www.w3.org/2000/svg" d="m295.953125 512h-143.96875c-4.425781 0-8-3.574219-8-8s3.574219-8 8-8h143.96875c4.421875 0 8 3.574219 8 8s-3.578125 8-8 8zm0 0" fill="#000000" data-original="#000000" class=""></path><path xmlns="http://www.w3.org/2000/svg" d="m295.953125 16h-143.96875c-4.425781 0-8-3.574219-8-8s3.574219-8 8-8h143.96875c4.421875 0 8 3.574219 8 8s-3.578125 8-8 8zm0 0" fill="#000000" data-original="#000000" class=""></path><path xmlns="http://www.w3.org/2000/svg" d="m311.9375 335.558594c-4.425781 0-8-3.574219-8-8v-23.542969c0-4.421875 3.574219-8 8-8 4.421875 0 8 3.578125 8 8v23.542969c0 4.425781-3.578125 8-8 8zm0 0" fill="#000000" data-original="#000000" class=""></path><path xmlns="http://www.w3.org/2000/svg" d="m423.953125 312.015625h-112.015625c-4.425781 0-8-3.574219-8-8 0-4.421875 3.574219-8 8-8h112.015625c4.421875 0 8 3.578125 8 8 0 4.425781-3.578125 8-8 8zm0 0" fill="#000000" data-original="#000000" class=""></path><path xmlns="http://www.w3.org/2000/svg" d="m423.953125 336.03125c-4.425781 0-8-3.574219-8-8v-24.015625c0-4.421875 3.574219-8 8-8 4.421875 0 8 3.578125 8 8v24.015625c0 4.425781-3.578125 8-8 8zm0 0" fill="#000000" data-original="#000000" class=""></path><path xmlns="http://www.w3.org/2000/svg" d="m367.945312 312.015625c-4.425781 0-8-3.574219-8-8v-48c0-4.421875 3.574219-8 8-8 4.421876 0 8 3.578125 8 8v48c0 4.425781-3.578124 8-8 8zm0 0" fill="#000000" data-original="#000000" class=""></path><path xmlns="http://www.w3.org/2000/svg" d="m335.945312 312.015625c-4.425781 0-8-3.574219-8-8v-8.015625c0-4.425781 3.574219-8 8-8 4.421876 0 8 3.574219 8 8v8.015625c0 4.425781-3.578124 8-8 8zm0 0" fill="#000000" data-original="#000000" class=""></path><path xmlns="http://www.w3.org/2000/svg" d="m399.945312 312.015625c-4.425781 0-8-3.574219-8-8v-8.015625c0-4.425781 3.574219-8 8-8 4.421876 0 8 3.574219 8 8v8.015625c0 4.425781-3.578124 8-8 8zm0 0" fill="#000000" data-original="#000000" class=""></path><path xmlns="http://www.w3.org/2000/svg" d="m319.9375 432.0625c-4.425781 0-8-3.574219-8-8v-16.0625c0-4.425781 3.574219-8 8-8 4.421875 0 8 3.574219 8 8v16.0625c0 4.425781-3.578125 8-8 8zm0 0" fill="#000000" data-original="#000000" class=""></path><path xmlns="http://www.w3.org/2000/svg" d="m319.9375 112.03125c-4.425781 0-8-3.574219-8-8v-16.0625c0-4.425781 3.574219-8 8-8 4.421875 0 8 3.574219 8 8v16.0625c0 4.425781-3.578125 8-8 8zm0 0" fill="#000000" data-original="#000000" class=""></path><path xmlns="http://www.w3.org/2000/svg" d="m31.945312 112.03125c-4.425781 0-8-3.574219-8-8v-16.0625c0-4.425781 3.574219-8 8-8 4.421876 0 8 3.574219 8 8v16.0625c0 4.425781-3.578124 8-8 8zm0 0" fill="#000000" data-original="#000000" class=""></path><path xmlns="http://www.w3.org/2000/svg" d="m151.984375 424.046875h-143.984375c-4.425781 0-8-3.574219-8-8 0-4.421875 3.574219-8 8-8h143.984375c4.421875 0 8 3.578125 8 8 0 4.425781-3.578125 8-8 8zm0 0" fill="#000000" data-original="#000000" class=""></path><path xmlns="http://www.w3.org/2000/svg" d="m223.945312 512c-4.425781 0-8-3.574219-8-8v-175.96875c0-4.421875 3.574219-8 8-8 4.421876 0 8 3.578125 8 8v175.96875c0 4.425781-3.578124 8-8 8zm0 0" fill="#000000" data-original="#000000" class=""></path><path xmlns="http://www.w3.org/2000/svg" d="m199.945312 432.0625c-4.425781 0-8-3.574219-8-8v-16.046875c0-4.421875 3.574219-8 8-8 4.421876 0 8 3.578125 8 8v16.046875c0 4.425781-3.578124 8-8 8zm0 0" fill="#000000" data-original="#000000" class=""></path><path xmlns="http://www.w3.org/2000/svg" d="m87.945312 359.9375h-16c-4.425781 0-8-3.578125-8-8 0-4.425781 3.574219-8 8-8h16c4.421876 0 8 3.574219 8 8 0 4.421875-3.578124 8-8 8zm0 0" fill="#000000" data-original="#000000" class=""></path><path xmlns="http://www.w3.org/2000/svg" d="m231.945312 103.953125h-16c-4.425781 0-8-3.578125-8-8 0-4.425781 3.574219-8 8-8h16c4.421876 0 8 3.574219 8 8 0 4.421875-3.578124 8-8 8zm0 0" fill="#000000" data-original="#000000" class=""></path><path xmlns="http://www.w3.org/2000/svg" d="m87.945312 447.984375h-16c-4.425781 0-8-3.578125-8-8 0-4.425781 3.574219-8 8-8h16c4.421876 0 8 3.574219 8 8 0 4.421875-3.578124 8-8 8zm0 0" fill="#000000" data-original="#000000" class=""></path><path xmlns="http://www.w3.org/2000/svg" d="m247.9375 432.0625c-4.425781 0-8-3.574219-8-8v-16.046875c0-4.421875 3.574219-8 8-8 4.421875 0 8 3.578125 8 8v16.046875c0 4.425781-3.578125 8-8 8zm0 0" fill="#000000" data-original="#000000" class=""></path></g></svg>