<svg xmlns="http://www.w3.org/2000/svg" version="1.1" xmlns:xlink="http://www.w3.org/1999/xlink" xmlns:svgjs="http://svgjs.com/svgjs" width="512" height="512" x="0" y="0" viewBox="0 0 512 512" style="enable-background:new 0 0 512 512" xml:space="preserve" class=""><g><g xmlns="http://www.w3.org/2000/svg"><path d="m131.75 184.25c28.949 0 52.5-23.551 52.5-52.5s-23.551-52.5-52.5-52.5-52.5 23.551-52.5 52.5 23.551 52.5 52.5 52.5zm0-90c20.678 0 37.5 16.822 37.5 37.5s-16.822 37.5-37.5 37.5-37.5-16.822-37.5-37.5 16.822-37.5 37.5-37.5z" fill="#000000" data-original="#000000" class=""></path><path d="m131.75 327.75c-28.949 0-52.5 23.551-52.5 52.5s23.551 52.5 52.5 52.5 52.5-23.551 52.5-52.5-23.552-52.5-52.5-52.5zm0 90c-20.678 0-37.5-16.822-37.5-37.5s16.822-37.5 37.5-37.5 37.5 16.822 37.5 37.5-16.823 37.5-37.5 37.5z" fill="#000000" data-original="#000000" class=""></path><path d="m489.5 0h-218.5c-5.758 0-11.016 2.177-15 5.747-3.984-3.57-9.242-5.747-15-5.747h-218.5c-12.406 0-22.5 10.093-22.5 22.5v22.5h15v-22.5c0-4.136 3.364-7.5 7.5-7.5h63.64v11.894l-59.247 59.245h-11.893v-26.139h-15v181c0 5.758 2.177 11.016 5.747 15-3.57 3.984-5.747 9.242-5.747 15v218.5c0 12.407 10.094 22.5 22.5 22.5h218.5c12.406 0 22.5-10.093 22.5-22.5v-218.5c0-3.472-.792-6.763-2.202-9.702 2.939 1.411 6.23 2.202 9.702 2.202h218.5c12.407 0 22.5-10.093 22.5-22.5v-218.5c0-12.407-10.094-22.5-22.5-22.5zm7.5 22.5v63.639h-11.893l-59.247-59.245v-11.894h63.64c4.135 0 7.5 3.364 7.5 7.5zm-86.14 226h-61.221v-18.106l-68.033-68.033h-18.106v-61.222h18.106l68.033-68.033v-18.106h61.221v18.106l68.034 68.033h18.106v61.222h-18.106l-68.034 68.033zm-162.36 22.5v63.639h-11.893l-59.246-59.246v-11.893h63.639c4.135 0 7.5 3.364 7.5 7.5zm-86.139 226h-61.221v-18.106l-68.033-68.033h-18.107v-61.222h18.106l68.033-68.033v-18.106h61.221v18.106l68.033 68.033h18.107v61.222h-18.106l-68.033 68.033zm-147.361-256v-63.639h11.893l59.246 59.246v11.893h-63.639c-4.135 0-7.5-3.364-7.5-7.5zm71.139 22.5v11.893l-59.246 59.246h-11.893v-63.639c0-4.136 3.364-7.5 7.5-7.5zm154.861-15h-63.64v-11.893l59.246-59.246h11.894v63.639c0 4.136-3.365 7.5-7.5 7.5zm30-233.5h63.639v11.894l-59.246 59.246h-11.893v-63.64c0-4.136 3.364-7.5 7.5-7.5zm-22.5 7.5v63.639h-11.893l-59.246-59.246v-11.893h63.639c4.135 0 7.5 3.364 7.5 7.5zm-215.394 78.639 68.033-68.033v-18.106h61.221v18.106l68.033 68.033h18.107v61.222h-18.106l-68.033 68.033v18.106h-61.221v-18.106l-68.033-68.033h-18.107v-61.222zm-18.106 388.361v-63.639h11.893l59.246 59.246v11.893h-63.639c-4.135 0-7.5-3.364-7.5-7.5zm226 7.5h-63.64v-11.894l59.246-59.246h11.894v63.64c0 4.136-3.365 7.5-7.5 7.5zm22.5-256v-63.639h11.893l59.246 59.246v11.893h-63.639c-4.136 0-7.5-3.364-7.5-7.5zm226 7.5h-63.64v-11.893l59.247-59.246h11.893v63.639c0 4.136-3.365 7.5-7.5 7.5z" fill="#000000" data-original="#000000" class=""></path><path d="m380.25 79.25c-28.949 0-52.5 23.551-52.5 52.5s23.551 52.5 52.5 52.5 52.5-23.551 52.5-52.5-23.552-52.5-52.5-52.5zm0 90c-20.678 0-37.5-16.822-37.5-37.5s16.822-37.5 37.5-37.5 37.5 16.822 37.5 37.5-16.823 37.5-37.5 37.5z" fill="#000000" data-original="#000000" class=""></path><path d="m218.5 30h15v15h-15z" fill="#000000" data-original="#000000" class=""></path><path d="m218.5 278.5h15v15h-15z" fill="#000000" data-original="#000000" class=""></path><path d="m467 30h15v15h-15z" fill="#000000" data-original="#000000" class=""></path><path d="m321.914 374.946c-8.772-8.772-23.045-8.773-31.819 0-8.772 8.772-8.772 23.046 0 31.819l63.64 63.64c4.386 4.386 10.147 6.579 15.909 6.579s11.524-2.193 15.91-6.579c8.772-8.772 8.772-23.047 0-31.819zm53.034 84.853c-2.924 2.925-7.682 2.925-10.607 0l-63.64-63.64c-2.924-2.924-2.924-7.682 0-10.606 2.925-2.924 7.683-2.924 10.606 0l63.64 63.64c2.925 2.924 2.925 7.682.001 10.606z" fill="#000000" data-original="#000000" class=""></path><path d="m406.765 290.095c-8.772-8.772-23.047-8.772-31.819 0-4.238 4.238-6.572 9.888-6.572 15.91s2.334 11.672 6.572 15.91l63.64 63.639c4.238 4.238 9.888 6.573 15.91 6.573 6.021 0 11.672-2.334 15.91-6.572s6.572-9.888 6.571-15.911c-.001-6.021-2.334-11.671-6.571-15.908zm53.034 84.852c-1.405 1.405-3.288 2.179-5.303 2.179s-3.898-.773-5.303-2.179l-63.64-63.64c-1.405-1.405-2.178-3.288-2.178-5.303s.773-3.898 2.178-5.303c1.462-1.462 3.383-2.193 5.303-2.193s3.841.731 5.303 2.193l63.64 63.64c1.404 1.404 2.178 3.288 2.178 5.303 0 2.016-.773 3.899-2.178 5.303z" fill="#000000" data-original="#000000" class=""></path><path d="m412.07 380.25-10.606 10.606 37.123 37.123c2.924 2.924 2.924 7.682 0 10.606-1.405 1.405-3.288 2.178-5.303 2.178s-3.898-.773-5.303-2.178l-106.067-106.064c-1.405-1.405-2.178-3.288-2.178-5.303s.773-3.898 2.178-5.303 3.288-2.179 5.303-2.178c2.015 0 3.898.773 5.303 2.178l37.123 37.123 10.606-10.606-37.123-37.123c-4.237-4.238-9.887-6.572-15.909-6.572-6.022 0-11.672 2.334-15.91 6.572-8.772 8.772-8.772 23.047 0 31.819l106.066 106.066c4.386 4.386 10.148 6.58 15.91 6.58s11.523-2.193 15.91-6.58c8.772-8.772 8.772-23.047 0-31.819z" fill="#000000" data-original="#000000" class=""></path><path d="m383.356 362.144h15v15h-15z" transform="matrix(.707 -.707 .707 .707 -146.898 384.643)" fill="#000000" data-original="#000000" class=""></path></g></g></svg>