<svg xmlns="http://www.w3.org/2000/svg" version="1.1" xmlns:xlink="http://www.w3.org/1999/xlink" xmlns:svgjs="http://svgjs.com/svgjs" width="512" height="512" x="0" y="0" viewBox="0 0 60 60" style="enable-background:new 0 0 512 512" xml:space="preserve" class=""><g><g xmlns="http://www.w3.org/2000/svg" id="Page-1" fill="none" fill-rule="evenodd"><g id="020---Painting-Wall" fill="rgb(0,0,0)" fill-rule="nonzero"><path id="Shape" d="m2 60h34c1.1045695 0 2-.8954305 2-2v-2c0-1.1045695-.8954305-2-2-2v-15c1.1045695 0 2-.8954305 2-2v-11c0-.5522847-.4477153-1-1-1h-1v-.726c.0000504-.388432.2250302-.7416933.577-.906l12.692-5.923c1.054206-.4953843 1.7282839-1.5542045 1.731-2.719v-2.726c0-1.6568542-1.3431458-3-3-3h-1v-2c0-1.1045695-.8954305-2-2-2h-9v-3c0-1.1045695-.8954305-2-2-2h-32c-1.1045695 0-2 .8954305-2 2v56c0 1.1045695.8954305 2 2 2zm34-2h-34v-2h34zm-2-21v-10h2v10zm14-26c.5522847 0 1 .4477153 1 1v2.726c-.0000504.388432-.2250302.7416933-.577.906l-12.423 5.798v-6.43h9c1.1045695 0 2-.8954305 2-2v-2zm-3-1v3h-22v-6h22zm-11-5h-11c-1.1045695 0-2 .8954305-2 2v2c-.5522847 0-1 .44771525-1 1 0 .5522847.4477153 1 1 1v2c0 1.1045695.8954305 2 2 2h11v10h-1c-.5522847 0-1 .4477153-1 1v-5c0-2.209139-1.790861-4-4-4s-4 1.790861-4 4v5c0 1.1045695-.8954305 2-2 2s-2-.8954305-2-2v-10c0-2.209139-1.790861-4-4-4s-4 1.790861-4 4v2c0 1.1045695-.8954305 2-2 2s-2-.8954305-2-2v-16h26zm-32-3h4v16c0 2.209139 1.790861 4 4 4s4-1.790861 4-4v-2c0-1.1045695.8954305-2 2-2s2 .8954305 2 2v10c0 2.209139 1.790861 4 4 4s4-1.790861 4-4v-5c0-1.1045695.8954305-2 2-2s2 .8954305 2 2v5c.0052514 1.2667854.8056491 2.3937454 2 2.816v8.184c0 1.1045695.8954305 2 2 2v15h-32z" fill="#000000" data-original="#000000" class=""></path><path id="Shape" d="m43 60h14c1.1045695 0 2-.8954305 2-2v-14c.5522847 0 1-.4477153 1-1s-.4477153-1-1-1h-1v-1c0-4.418278-3.581722-8-8-8s-8 3.581722-8 8v1h-1c-.5522847 0-1 .4477153-1 1s.4477153 1 1 1v14c0 1.1045695.8954305 2 2 2zm1-19c.0000001-3.3137084 2.6862916-5.9999998 6-5.9999998s5.9999999 2.6862914 6 5.9999998v1h-12zm1 3v7c0 .5522847.4477153 1 1 1s1-.4477153 1-1v-7h2v4c0 .5522847.4477153 1 1 1s1-.4477153 1-1v-4h6v14h-14v-14z" fill="#000000" data-original="#000000" class=""></path></g></g></g></svg>