<svg xmlns="http://www.w3.org/2000/svg" version="1.1" xmlns:xlink="http://www.w3.org/1999/xlink" xmlns:svgjs="http://svgjs.com/svgjs" width="512" height="512" x="0" y="0" viewBox="0 0 511.752 511.752" style="enable-background:new 0 0 512 512" xml:space="preserve" class=""><g><g xmlns="http://www.w3.org/2000/svg"><path d="m470.431 171.788h-24.371l-69.206-52.266c-21.55-16.66-46.546-25.466-72.294-25.466-23.98 0-47.496 7.704-68.009 22.28-19.451 13.822-35.82 33.527-47.336 56.987-7.053 14.368-21.719 23.937-37.911 24.981v-47.74c0-8.284-6.716-15-15-15h-46v-84.71c0-8.284-6.716-15-15-15h-45.276v-20.854c0-8.284-6.716-15-15-15s-15 6.716-15 15v481.752c0 8.284 6.716 15 15 15s15-6.716 15-15v-20.855h45.275c8.284 0 15-6.716 15-15v-84.71h46c8.284 0 15-6.716 15-15v-47.74c16.192 1.044 30.858 10.613 37.912 24.982 11.516 23.459 27.885 43.164 47.336 56.986 20.513 14.576 44.029 22.28 68.009 22.28 25.748 0 50.744-8.806 72.294-25.466l69.206-52.266h24.371c22.77 0 41.293-18.524 41.293-41.294v-85.588c0-22.769-18.524-41.293-41.293-41.293zm-349.128 174.398h-46c-8.284 0-15 6.716-15 15v84.71h-30.275v-380.041h30.275v84.71c0 8.284 6.716 15 15 15h46zm94.842-20.977c-12.055-24.556-37.282-40.718-64.842-41.799v-55.067c27.56-1.081 52.787-17.243 64.841-41.798 19.208-39.128 52.261-62.487 88.415-62.487 5.072 0 10.115.485 15.094 1.414v260.811c-4.979.928-10.021 1.414-15.094 1.414-36.154-.002-69.206-23.361-88.414-62.488zm209.887-7.714-67.33 50.849c-.048.036-.095.072-.142.108-2.895 2.241-5.87 4.285-8.906 6.146v-237.445c3.037 1.861 6.011 3.905 8.906 6.146.048.036.095.072.142.108l67.33 50.849zm55.692-18.825c0 6.228-5.066 11.294-11.293 11.294h-14.398v-108.176h14.398c6.227 0 11.293 5.066 11.293 11.294z" fill="#000000" data-original="#000000" class=""></path></g></g></svg>